<svg width="108" height="43" viewBox="0 0 108 43" fill="none" xmlns="http://www.w3.org/2000/svg">
<path d="M7.84968 33.4748V40.794H6.39087V40.2635V39.8954C6.3177 39.9686 6.22853 40.0715 6.12563 40.1469C5.49226 40.6614 4.68283 40.9724 3.78422 40.9724C1.67832 40.9724 0 39.2643 0 37.1881C0 35.112 1.67832 33.4039 3.78422 33.4039C4.6531 33.4039 5.46254 33.7126 6.12563 34.2134C6.21481 34.3025 6.3017 34.4191 6.39087 34.5083V34.1699V33.4771H7.84968V33.4748ZM6.40688 37.2133C6.40688 35.8734 5.11041 34.7827 3.7865 34.7827C2.44659 34.7827 1.38564 35.8734 1.38564 37.2133C1.38564 38.5395 2.44659 39.6142 3.7865 39.6142C5.11041 39.6142 6.40688 38.5692 6.40688 37.2133Z" fill="black"/>
<path d="M11.5448 40.8512H10.0288V33.4885H11.5448V34.0327L11.5151 34.4443C11.618 34.3414 11.7369 34.1653 11.8397 34.0762C12.3839 33.6349 13.0333 33.4291 13.7696 33.4291C16.3762 33.4291 17.627 35.1234 17.627 37.1538V40.8512H16.111V39.9823V37.1538C16.111 35.8437 15.345 34.8719 13.8588 34.8719C12.5623 34.8719 11.5471 35.8437 11.5471 37.1538V40.8512H11.5448Z" fill="black"/>
<path d="M26.8006 33.4748V40.794H25.3418V40.2635V39.8954C25.2686 39.9686 25.1795 40.0715 25.0766 40.1469C24.4432 40.6614 23.6338 40.9724 22.7351 40.9724C20.6292 40.9724 18.9509 39.2643 18.9509 37.1881C18.9509 35.112 20.6292 33.4039 22.7351 33.4039C23.604 33.4039 24.4135 33.7126 25.0766 34.2134C25.1657 34.3025 25.2526 34.4191 25.3418 34.5083V34.1699V33.4771H26.8006V33.4748ZM25.3578 37.2133C25.3578 35.8734 24.0613 34.7827 22.7374 34.7827C21.3975 34.7827 20.3366 35.8734 20.3366 37.2133C20.3366 38.5395 21.3975 39.6142 22.7374 39.6142C24.0613 39.6142 25.3578 38.5692 25.3578 37.2133Z" fill="black"/>
<path d="M30.3629 40.8512H28.9041V30.5138H30.3629V40.8512Z" fill="black"/>
<path d="M39.1844 33.5183L34.9726 42.8702H33.3972L34.2066 41.1325L34.5016 40.4557L34.2226 39.8223L31.6594 33.5183H33.0885L34.9155 38.1417L35.2241 38.9969L35.5923 38.1577L37.6982 33.5183H39.1844V33.5183Z" fill="black"/>
<path d="M45.3398 34.872H43.4832V40.865H41.9969V34.872H40.0374V33.5023H41.9969V30.5413H43.4832V33.5023H45.3398V34.872Z" fill="black"/>
<path d="M48.0629 33.5778V40.8375H46.5767V33.5778H48.0629ZM48.0172 31.9429H46.6178V30.5573H48.0172V31.9429Z" fill="black"/>
<path d="M55.956 39.1729C55.3089 40.2041 54.1451 40.9541 52.8349 40.9541C50.7724 40.9541 49.197 39.2301 49.197 37.1699C49.197 35.1235 50.7724 33.356 52.8349 33.356C54.0582 33.356 55.1626 34.0625 55.8257 34.9748L54.6916 35.6814C54.264 35.1372 53.5872 34.753 52.8349 34.753C51.5247 34.753 50.5964 35.8574 50.5964 37.1676C50.5964 38.4938 51.5247 39.5525 52.8349 39.5525C53.5872 39.5525 54.2777 39.2141 54.7053 38.6539L55.956 39.1729Z" fill="black"/>
<path d="M64.7159 33.4748V40.794H63.2571V40.2635V39.8954C63.1839 39.9686 63.0947 40.0715 62.9918 40.1469C62.3585 40.6614 61.549 40.9724 60.6504 40.9724C58.5445 40.9724 56.8662 39.2643 56.8662 37.1881C56.8662 35.112 58.5445 33.4039 60.6504 33.4039C61.5193 33.4039 62.3287 33.7126 62.9918 34.2134C63.081 34.3025 63.1679 34.4191 63.2571 34.5083V34.1699V33.4771H64.7159V33.4748ZM63.2731 37.2133C63.2731 35.8734 61.9766 34.7827 60.6527 34.7827C59.3128 34.7827 58.2519 35.8734 58.2519 37.2133C58.2519 38.5395 59.3128 39.6142 60.6527 39.6142C61.9766 39.6142 63.2731 38.5692 63.2731 37.2133Z" fill="black"/>
<path d="M68.9644 40.8374H67.4758V30.5435H68.9918V33.9001V34.4146C69.065 34.3117 69.1976 34.1791 69.3005 34.0899C69.8607 33.692 70.5969 33.4131 71.244 33.4131C73.4688 33.4131 75.074 34.9885 75.074 37.1378V40.8192H73.6015V39.9366V37.1378C73.6015 35.8414 72.7326 34.8856 71.244 34.8856C69.9476 34.8856 68.9918 35.8436 68.9621 37.1104V40.8374H68.9644Z" fill="#C11D1D"/>
<path d="M83.9845 37.1402C83.9845 39.2598 82.2467 40.9838 80.1271 40.9838C78.0075 40.9838 76.3269 39.2598 76.3269 37.1402C76.3269 35.0205 78.0052 33.3125 80.1271 33.3125C82.2467 33.3125 83.9845 35.0205 83.9845 37.1402ZM82.5691 37.1402C82.5691 35.7271 81.5539 34.6364 80.1248 34.6364C78.7255 34.6364 77.6645 35.7271 77.6645 37.1402C77.6645 38.5692 78.7255 39.6576 80.1248 39.6576C81.5539 39.6599 82.5691 38.5692 82.5691 37.1402Z" fill="#C11D1D"/>
<path d="M85.2192 37.3323V33.5023H86.7352V34.5633V37.3323C86.7352 38.6287 87.5744 39.5708 88.9874 39.5708C90.0484 39.5708 91.1962 38.6287 91.2123 37.3483V37.2591V34.5793V33.5046H92.6848V40.8101H91.1985V39.8818C90.6246 40.5151 89.8723 40.9564 88.9897 40.9564C86.7672 40.9541 85.2192 39.3353 85.2192 37.3323Z" fill="#C11D1D"/>
<path d="M99.4896 38.9077C99.4164 40.3505 97.9736 40.9975 96.7366 40.9404C95.4264 40.8512 94.6444 40.2933 94.2031 39.2758L95.5133 38.8185C95.7351 39.2895 96.1467 39.5685 96.7938 39.5845C97.5003 39.6279 98.0902 39.3192 98.104 38.8185C98.1474 38.1988 97.8387 37.8033 96.8967 37.7438C96.8532 37.7438 96.8372 37.7438 96.7938 37.7141C95.4241 37.6112 94.4386 36.58 94.5118 35.3292C94.5713 34.1356 95.8083 33.2828 97.1482 33.3559C98.1634 33.4291 98.8722 33.843 99.3135 34.5038L98.2983 35.2103C98.0468 34.8285 97.6055 34.5632 97.1047 34.5472C96.3388 34.5038 95.9112 34.8559 95.8677 35.4161C95.838 35.9169 96.2199 36.4771 96.9584 36.5205C98.5613 36.596 99.5765 37.5083 99.4896 38.9077Z" fill="#C11D1D"/>
<path d="M107.897 38.3932C107.191 40.1173 105.748 40.9701 104.246 40.9701C102.153 40.9701 100.475 39.2461 100.475 37.1699C100.475 35.08 102.153 33.356 104.246 33.356C106.322 33.356 108 35.08 108 37.1699C108 37.3025 108 37.4649 107.984 37.5815H106.628H105.878H101.918C102.11 38.7156 103.052 39.5982 104.246 39.5982C105.158 39.5982 105.954 39.1569 106.335 38.3909C106.63 38.3932 107.499 38.3932 107.897 38.3932ZM101.961 36.4771H102.213H106.1H106.541C106.498 36.3582 106.422 36.2416 106.379 36.125C105.997 35.3155 105.201 34.7119 104.243 34.7119C103.242 34.7119 102.432 35.3452 102.064 36.1981C102.021 36.301 101.977 36.3902 101.961 36.4771Z" fill="#C11D1D"/>
<path d="M35.5168 22.9408H52.1834L50.6148 20.6634H39.7378L42.3101 15.8366L44.0113 12.6423L47.7818 5.56543L53.1095 15.5599L57.383 22.9408H60.184L47.7818 0L35.5168 22.9408Z" fill="black"/>
<path d="M56.9943 0.0319824H54.3213L66.712 22.9408H69.3347L56.9943 0.0319824Z" fill="#C11D1D"/>
</svg>
